HIERARCHY
ROOT root
{
	OFFSET 0.000000 0.000000 0.000000
	CHANNELS 6 Xposition Yposition Zposition Zrotation Yrotation Xrotation
	JOINT lhip
	{
		OFFSET 0.058581 -0.082280 -0.017664
		CHANNELS 3 Zrotation Yrotation Xrotation
		JOINT lknee
		{
			OFFSET 0.043451 -0.386469 0.008037
			CHANNELS 3 Zrotation Yrotation Xrotation
			JOINT lankle
			{
				OFFSET -0.014790 -0.426874 -0.037428
				CHANNELS 3 Zrotation Yrotation Xrotation
				JOINT ltoe
				{
					OFFSET 0.041054 -0.060286 0.122042
					CHANNELS 3 Zrotation Yrotation Xrotation
					End Site
					{
						OFFSET 0.000000 0.000000 0.000000
					}
				}
			}
		}
	}
	JOINT rhip
	{
		OFFSET -0.060310 -0.090513 -0.013543
		CHANNELS 3 Zrotation Yrotation Xrotation
		JOINT rknee
		{
			OFFSET -0.043257 -0.383688 -0.004843
			CHANNELS 3 Zrotation Yrotation Xrotation
			JOINT rankle
			{
				OFFSET 0.019056 -0.420046 -0.034562
				CHANNELS 3 Zrotation Yrotation Xrotation
				JOINT rtoe
				{
					OFFSET -0.034840 -0.062106 0.130323
					CHANNELS 3 Zrotation Yrotation Xrotation
					End Site
					{
						OFFSET 0.000000 0.000000 0.000000
					}
				}
			}
		}
	}
	JOINT lowerback
	{
		OFFSET 0.004439 0.124404 -0.038385
		CHANNELS 3 Zrotation Yrotation Xrotation
		JOINT upperback
		{
			OFFSET 0.004488 0.137956 0.026820
			CHANNELS 3 Zrotation Yrotation Xrotation
			JOINT chest
			{
				OFFSET -0.002265 0.056032 0.002855
				CHANNELS 3 Zrotation Yrotation Xrotation
				JOINT lowerneck
				{
					OFFSET -0.013390 0.211636 -0.033468
					CHANNELS 3 Zrotation Yrotation Xrotation
					JOINT upperneck
					{
						OFFSET 0.010113 0.088937 0.050410
						CHANNELS 3 Zrotation Yrotation Xrotation
						End Site
						{
							OFFSET 0.000000 0.000000 0.000000
						}
					}
				}
				JOINT lclavicle
				{
					OFFSET 0.071702 0.114000 -0.018898
					CHANNELS 3 Zrotation Yrotation Xrotation
					JOINT lshoulder
					{
						OFFSET 0.122921 0.045205 -0.019046
						CHANNELS 3 Zrotation Yrotation Xrotation
						JOINT lelbow
						{
							OFFSET 0.255332 -0.015649 -0.022946
							CHANNELS 3 Zrotation Yrotation Xrotation
							JOINT lwrist
							{
								OFFSET 0.265709 0.012698 -0.007375
								CHANNELS 3 Zrotation Yrotation Xrotation
								End Site
								{
									OFFSET 0.000000 0.000000 0.000000
								}
							}
						}
					}
				}
				JOINT rclavicle
				{
					OFFSET -0.082954 0.112472 -0.023707
					CHANNELS 3 Zrotation Yrotation Xrotation
					JOINT rshoulder
					{
						OFFSET -0.113228 0.046853 -0.008472
						CHANNELS 3 Zrotation Yrotation Xrotation
						JOINT relbow
						{
							OFFSET -0.260127 -0.014369 -0.031269
							CHANNELS 3 Zrotation Yrotation Xrotation
							JOINT rwrist
							{
								OFFSET -0.269108 0.006794 -0.006027
								CHANNELS 3 Zrotation Yrotation Xrotation
								End Site
								{
									OFFSET 0.000000 0.000000 0.000000
								}
							}
						}
					}
				}
			}
		}
	}
}
MOTION
Frames: 15
Frame Time: 0.033333
-0.313126 0.416983 0.361938 112.087672 0.553438 72.597699 29.599537 6.321004 -55.098938 -22.929822 17.955098 153.883619 3.269456 -5.786137 -20.857437 0.000000 -0.000000 0.000000 -18.020471 -13.038525 -93.230361 -2.140021 -19.499080 156.148651 -3.419115 -1.555572 -37.129272 0.000000 -0.000000 0.000000 -4.341561 -5.376717 57.462955 6.912279 1.974676 -12.888470 -0.891122 -3.999242 -1.401777 0.522232 -0.284187 -20.751982 -2.621788 -22.168857 16.877699 -26.507007 -22.474392 2.171611 -20.906101 -24.562618 7.420422 8.997379 -62.929284 -18.702673 38.385433 -12.180870 -34.036965 33.990419 16.860737 0.426893 30.358542 6.648573 12.953512 -8.146501 56.378637 -3.612322 -25.813649 18.876149 -15.914586 
-0.312824 0.415701 0.380787 112.557344 -0.364768 74.246209 27.619601 6.181312 -55.230659 -21.499992 17.337731 151.964934 4.142278 -4.029912 -21.597420 0.000000 -0.000000 0.000000 -17.381003 -11.755285 -93.221874 -1.472126 -19.213288 153.813215 -2.690542 -3.028485 -36.286540 0.000000 -0.000000 0.000000 -3.922726 -5.953134 55.921726 6.586933 1.378574 -13.092664 -1.166096 -3.749478 -0.960601 0.468256 3.465337 -21.295356 -3.571475 -17.269098 17.448358 -24.384790 -23.535562 1.366320 -15.830220 -21.168622 4.739302 10.782318 -61.892098 -24.462651 39.491199 -11.843643 -33.617237 31.417447 20.135476 -1.422358 27.671320 14.710853 11.917948 -23.237774 63.520017 -19.049146 -26.318924 18.610136 -16.880621 
-0.311943 0.413265 0.409937 112.682778 -1.385384 77.233661 25.307548 5.379799 -55.718051 -19.933088 16.240004 148.202518 4.251068 -2.584453 -21.490112 0.000000 -0.000000 0.000000 -17.829599 -9.721958 -93.277902 -1.304427 -18.746228 150.115872 -1.951277 -2.650196 -33.306109 0.000000 -0.000000 0.000000 -4.024521 -6.038983 52.978542 6.737885 1.115912 -13.635443 -1.179845 -3.056829 -0.788068 0.729938 6.807121 -20.963397 -4.625915 -13.386512 17.137007 -21.456916 -23.934692 0.078393 -12.089361 -19.532164 2.446160 13.884942 -59.807265 -30.396426 39.116484 -12.464315 -32.971873 28.190082 22.782947 -3.761382 24.339895 23.719728 9.828682 -43.936258 66.414814 -39.334149 -27.187424 18.770178 -17.199937 
-0.307711 0.412375 0.444282 112.676916 -2.869644 80.230719 22.701030 4.892452 -55.274356 -18.677920 15.118652 143.474793 4.710951 -2.201146 -20.964665 0.000000 -0.000000 0.000000 -17.007949 -8.006599 -93.003314 -0.081524 -17.652771 145.858588 -0.797348 -2.977177 -29.748263 0.000000 -0.000000 0.000000 -3.955463 -5.881315 48.723046 6.402429 0.728133 -13.523788 -1.415082 -2.916997 -0.632140 0.914698 8.749665 -20.427491 -4.773588 -9.627484 17.148531 -18.305440 -24.311399 -1.467638 -8.867318 -17.473197 0.518345 16.670349 -58.253418 -34.507659 39.503558 -12.788227 -31.372662 23.726538 25.425684 -6.346076 21.402127 32.396334 7.054301 -59.941962 64.345672 -55.163381 -28.122027 19.372312 -15.777640 
-0.299096 0.412879 0.484935 112.213675 -4.251473 81.799696 20.140095 4.864888 -52.064033 -18.316076 13.188467 137.577980 4.785064 -2.867033 -20.501189 0.000000 -0.000000 0.000000 -16.953617 -5.783451 -90.021749 0.628906 -15.942243 141.246502 0.906483 -2.173560 -25.711376 0.000000 -0.000000 0.000000 -4.108152 -5.628456 45.474705 5.747882 0.431712 -12.883891 -1.593437 -2.350062 -1.500895 1.536364 10.090942 -17.948021 -5.090284 -6.522094 17.006684 -15.517366 -24.835477 -2.360327 -7.178730 -15.194340 -0.919058 18.600546 -56.483853 -35.740281 35.766796 -14.228750 -29.672375 18.317515 28.615515 -8.628355 18.775206 38.088294 3.919391 -69.279298 59.799492 -63.776945 -28.428768 19.383037 -14.303553 
-0.287545 0.415529 0.526895 111.302632 -5.938431 82.981324 17.723943 4.442437 -49.038968 -18.060747 12.297521 131.469431 3.563307 -3.936850 -16.623368 0.000000 -0.000000 0.000000 -16.491421 -3.763945 -86.062816 1.937127 -14.106491 136.209837 1.815033 -1.963995 -22.049704 0.000000 -0.000000 0.000000 -4.247391 -5.111203 41.919095 4.902422 0.432226 -12.529185 -2.027958 -1.710056 -1.668125 1.849964 10.686232 -15.334522 -5.305976 -3.804577 17.325690 -13.069509 -24.340633 -3.399215 -7.396740 -14.103170 -1.071609 20.126465 -55.097980 -36.360005 34.705669 -14.293721 -29.615604 13.483589 29.714663 -11.211854 16.032148 42.893149 0.781692 -72.381922 56.297067 -66.178018 -27.886276 20.104031 -13.504572 
-0.272419 0.419653 0.568824 110.416341 -7.028473 83.120793 16.413225 3.845954 -46.723433 -17.135672 11.901132 125.866174 0.836652 -5.321036 -9.981885 0.000000 -0.000000 0.000000 -16.295643 -2.115653 -80.141124 2.541847 -12.298914 130.960262 2.674435 -0.948747 -18.926534 0.000000 -0.000000 0.000000 -3.714110 -4.326296 39.116223 4.062921 0.742439 -11.994241 -2.366196 -0.986129 -1.942256 1.862699 10.683100 -12.543495 -5.195224 -1.929989 17.693458 -12.166084 -23.704792 -3.852850 -8.239481 -13.459564 -0.862130 21.136764 -54.759680 -37.097849 32.447209 -14.721872 -28.689311 10.493567 30.048267 -12.798855 11.809649 45.870761 -3.427209 -74.276056 54.953606 -68.099272 -27.254323 21.403020 -11.982290 
-0.255843 0.423309 0.607726 109.434932 -8.282568 82.623840 15.521419 3.671617 -45.452399 -16.281547 12.307462 121.473003 -2.438574 -6.270356 -1.679285 0.000000 -0.000000 0.000000 -15.644996 -0.489632 -73.545811 3.487104 -10.042050 125.830640 2.961447 -0.154819 -17.547416 0.000000 -0.000000 0.000000 -3.541295 -3.342249 37.366148 3.283017 0.856959 -11.767307 -2.842188 -0.230757 -2.148744 1.926491 10.847279 -10.303562 -4.778002 -0.621485 18.357304 -11.668811 -22.564579 -3.999485 -9.150657 -12.478979 -0.417248 22.053707 -55.716369 -36.996656 31.890979 -15.177786 -29.628033 8.374755 29.873269 -14.226435 9.060744 48.339517 -6.669681 -75.077930 54.625764 -68.832295 -26.843754 21.711487 -11.149542 
-0.239711 0.426352 0.641920 108.927295 -9.132717 82.555925 14.925987 3.698979 -45.683757 -15.640863 13.422604 119.124535 -4.366210 -6.853955 2.460656 0.000000 -0.000000 0.000000 -15.164394 0.463362 -68.228697 4.475711 -8.164455 121.202301 3.902519 0.869708 -16.002644 0.000000 -0.000000 0.000000 -3.496716 -2.690346 35.425567 2.888020 0.832055 -11.704112 -3.232646 0.361190 -2.277184 2.568036 11.543350 -8.984323 -4.828517 0.834360 19.390145 -12.034842 -20.517540 -3.964969 -9.927543 -11.323800 0.183137 23.880960 -58.091107 -37.880352 30.574039 -15.766903 -29.695614 7.555190 29.147297 -14.869777 7.238295 51.037163 -8.372206 -75.820570 53.993122 -69.577074 -26.290905 22.121447 -10.720697 
-0.223889 0.428464 0.671152 108.758117 -9.262082 82.595627 14.317840 5.000925 -46.584671 -15.410896 14.019865 116.911256 -3.957421 -8.102612 -2.041512 0.000000 -0.000000 0.000000 -14.148721 1.261576 -63.355507 5.652982 -6.483520 117.015014 5.274777 2.463308 -15.219263 0.000000 -0.000000 0.000000 -2.969797 -2.241266 34.695561 2.384872 1.086749 -13.381022 -3.129907 0.674500 -1.873107 3.011559 11.357434 -7.897066 -4.816374 2.676545 19.932977 -12.530113 -18.572495 -3.828911 -11.270754 -9.727331 0.797204 26.107353 -60.893626 -39.084311 30.481315 -15.789839 -30.370237 6.238396 28.098228 -15.518604 7.028880 52.397783 -9.088077 -77.800856 53.934969 -72.027681 -26.357166 22.984277 -9.794990 
-0.210621 0.430591 0.693255 108.822490 -9.319008 82.325576 13.495642 5.517793 -48.190449 -15.701933 15.071794 113.435938 -4.123979 -9.296809 -3.718438 0.000000 -0.000000 0.000000 -13.154202 1.660457 -58.828891 6.645040 -5.375831 113.546751 5.522315 2.458795 -15.638631 0.000000 -0.000000 0.000000 -2.462841 -1.679576 33.845915 2.128286 1.032522 -13.368950 -3.113748 0.976450 -1.517168 3.280847 11.298135 -7.877474 -4.687650 4.078912 19.630862 -13.284185 -17.053393 -3.625009 -12.088540 -7.911856 1.552139 30.035912 -63.273724 -42.681907 30.496449 -15.800727 -31.324963 5.634120 27.405703 -15.901368 5.762359 52.900355 -10.322834 -81.328395 53.837600 -76.228036 -26.200676 23.504193 -9.129015 
-0.199512 0.433439 0.709339 109.148099 -9.375406 82.010094 12.862338 6.113270 -50.247396 -14.696390 15.895839 110.130001 -3.002942 -8.902526 -6.118488 0.000000 -0.000000 0.000000 -12.183447 1.318773 -54.880390 6.698635 -4.429427 110.879174 5.116556 1.695799 -17.187923 0.000000 -0.000000 0.000000 -2.048797 -1.285780 33.842242 1.845637 0.841313 -14.027827 -2.939727 1.247347 -0.919147 3.486821 11.107800 -8.498491 -4.311115 5.158063 19.960954 -14.140211 -15.220031 -3.618103 -13.264019 -6.289097 1.918554 32.820362 -65.491259 -44.428786 30.757791 -15.368160 -32.849319 5.745199 26.624681 -15.929171 4.574386 53.357913 -11.520600 -83.813897 54.424327 -78.523563 -27.574615 23.490421 -8.537959 
-0.190010 0.435827 0.717984 109.062258 -9.446447 81.907100 12.224415 6.379912 -52.742561 -13.907989 16.742770 107.256038 -2.106498 -8.350603 -10.106467 0.000000 -0.000000 0.000000 -11.717226 1.854131 -52.591393 6.436697 -4.048339 109.540571 5.646620 1.159294 -18.351983 0.000000 -0.000000 0.000000 -2.002846 -0.663690 33.549377 1.778058 1.054256 -13.882735 -2.805847 1.304252 -0.358372 4.167821 11.394353 -9.209926 -4.657384 5.740549 19.748181 -15.177670 -13.458463 -3.320234 -14.325593 -4.897165 2.501303 36.656755 -66.735421 -47.942103 30.887140 -15.291463 -33.186213 6.372598 25.776120 -15.877683 3.524535 53.779758 -12.139549 -85.665928 54.419404 -80.852688 -27.187433 23.562941 -8.782822 
-0.181967 0.439865 0.720818 108.342316 -9.577131 82.013980 11.541251 6.710990 -55.771142 -13.865373 17.622465 104.759085 -0.288964 -8.764040 -13.785664 0.000000 -0.000000 0.000000 -10.702178 2.416987 -50.917427 7.044548 -3.143202 108.983628 4.805596 0.263073 -20.423749 0.000000 -0.000000 0.000000 -1.930452 -0.093178 34.015267 1.541445 1.429108 -14.711042 -2.728759 1.638436 0.378676 4.584059 11.585493 -10.434285 -4.908744 6.268994 20.323446 -16.456613 -11.431168 -3.340597 -15.550789 -3.527618 3.116175 37.908082 -67.983014 -48.304295 31.569625 -15.010105 -34.414159 7.203467 24.941732 -15.921605 4.292397 54.083072 -11.360980 -87.123821 54.406621 -82.148977 -26.969401 23.645728 -8.720008 
-0.175395 0.445454 0.717427 107.638470 -9.802328 81.786770 11.005353 6.043035 -58.686646 -14.556469 18.758051 102.653960 1.270243 -8.914723 -16.423224 0.000000 -0.000000 0.000000 -10.310148 2.827003 -49.736366 6.839758 -2.575884 109.324261 4.020810 -1.128454 -22.889064 0.000000 -0.000000 0.000000 -1.653444 0.193502 34.074338 1.411393 1.505590 -13.778665 -3.071572 2.139991 0.712523 4.974425 12.011967 -11.304948 -5.126093 6.898780 20.109402 -18.173232 -9.893014 -3.633904 -16.335495 -1.745550 3.887718 37.686367 -68.624991 -47.992258 31.193003 -14.765231 -34.004354 8.641956 24.731539 -15.537241 4.109562 53.974802 -11.027010 -87.547873 54.258912 -83.045418 -26.427291 23.962574 -8.086325 
